<svg width="56" height="56" viewBox="0 0 56 56" fill="none" xmlns="http://www.w3.org/2000/svg">
<g clip-path="url(#clip0_819_646)">
<path d="M16.3334 30.3333H14C11.4227 30.3333 9.33337 32.4226 9.33337 34.9999V41.9999C9.33337 44.5772 11.4227 46.6666 14 46.6666H16.3334C18.9107 46.6666 21 44.5772 21 41.9999V34.9999C21 32.4226 18.9107 30.3333 16.3334 30.3333Z" stroke="black" stroke-width="2" stroke-linecap="round" stroke-linejoin="round"/>
<path d="M42 30.3333H39.6667C37.0893 30.3333 35 32.4226 35 34.9999V41.9999C35 44.5772 37.0893 46.6666 39.6667 46.6666H42C44.5773 46.6666 46.6667 44.5772 46.6667 41.9999V34.9999C46.6667 32.4226 44.5773 30.3333 42 30.3333Z" stroke="black" stroke-width="2" stroke-linecap="round" stroke-linejoin="round"/>
<path d="M9.33337 34.9999V27.9999C9.33337 23.0492 11.3 18.3013 14.8007 14.8006C18.3014 11.2999 23.0493 9.33325 28 9.33325C32.9507 9.33325 37.6987 11.2999 41.1994 14.8006C44.7 18.3013 46.6667 23.0492 46.6667 27.9999V34.9999" stroke="black" stroke-width="2" stroke-linecap="round" stroke-linejoin="round"/>
</g>
<defs>
<clipPath id="clip0_819_646">
<rect width="56" height="56" fill="white"/>
</clipPath>
</defs>
</svg>
