<svg width="128" height="32" viewBox="0 0 128 32" fill="none" xmlns="http://www.w3.org/2000/svg">
<path d="M11 7C8.239 7 6 9.23669 6 11.9962C6 14.2238 6.875 19.5107 15.488 24.8551C15.6423 24.9499 15.8194 25 16 25C16.1806 25 16.3577 24.9499 16.512 24.8551C25.125 19.5107 26 14.2238 26 11.9962C26 9.23669 23.761 7 21 7C18.239 7 16 10.028 16 10.028C16 10.028 13.761 7 11 7Z" stroke="black" stroke-width="1.5" stroke-linecap="round" stroke-linejoin="round"/>
<circle cx="24" cy="9" r="8" fill="#DB4444"/>
<path d="M20.2066 11.068V10.24L24.4186 4.408H25.7266V10.12H26.9266V11.068H25.7266V13H24.6466V11.068H20.2066ZM24.6946 5.548L21.4666 10.12H24.6946V5.548Z" fill="#FAFAFA"/>
<path d="M57.25 28.25C57.6642 28.25 58 27.9142 58 27.5C58 27.0858 57.6642 26.75 57.25 26.75C56.8358 26.75 56.5 27.0858 56.5 27.5C56.5 27.9142 56.8358 28.25 57.25 28.25Z" stroke="black" stroke-width="1.5" stroke-linecap="round" stroke-linejoin="round"/>
<path d="M67.75 28.25C68.1642 28.25 68.5 27.9142 68.5 27.5C68.5 27.0858 68.1642 26.75 67.75 26.75C67.3358 26.75 67 27.0858 67 27.5C67 27.9142 67.3358 28.25 67.75 28.25Z" stroke="black" stroke-width="1.5" stroke-linecap="round" stroke-linejoin="round"/>
<path d="M51.25 11.75H54.25L56.5 24.5H68.5" stroke="black" stroke-width="1.5" stroke-linecap="round" stroke-linejoin="round"/>
<path d="M56.5 20.5H68.1925C68.2792 20.5001 68.3633 20.4701 68.4304 20.4151C68.4975 20.3601 68.5434 20.2836 68.5605 20.1986L69.9105 13.4486C69.9214 13.3942 69.92 13.338 69.9066 13.2841C69.8931 13.2303 69.8679 13.1801 69.8327 13.1372C69.7975 13.0943 69.7532 13.0597 69.703 13.036C69.6528 13.0122 69.598 13 69.5425 13H55" stroke="black" stroke-width="1.5" stroke-linecap="round" stroke-linejoin="round"/>
<circle cx="71" cy="10" r="8" fill="#DB4444"/>
<path d="M68.6608 13.124C69.6768 12.308 70.4728 11.64 71.0488 11.12C71.6248 10.592 72.1088 10.044 72.5008 9.476C72.9008 8.9 73.1008 8.336 73.1008 7.784C73.1008 7.264 72.9728 6.856 72.7168 6.56C72.4688 6.256 72.0648 6.104 71.5048 6.104C70.9608 6.104 70.5368 6.276 70.2328 6.62C69.9368 6.956 69.7768 7.408 69.7528 7.976H68.6968C68.7288 7.08 69.0008 6.388 69.5128 5.9C70.0248 5.412 70.6848 5.168 71.4928 5.168C72.3168 5.168 72.9688 5.396 73.4488 5.852C73.9368 6.308 74.1808 6.936 74.1808 7.736C74.1808 8.4 73.9808 9.048 73.5808 9.68C73.1888 10.304 72.7408 10.856 72.2368 11.336C71.7328 11.808 71.0888 12.36 70.3048 12.992H74.4328V13.904H68.6608V13.124Z" fill="#FAFAFA"/>
<path d="M120 27V24.3333C120 22.9188 119.522 21.5623 118.672 20.5621C117.822 19.5619 116.669 19 115.467 19H107.533C106.331 19 105.178 19.5619 104.328 20.5621C103.478 21.5623 103 22.9188 103 24.3333V27" stroke="black" stroke-width="1.5" stroke-linecap="round" stroke-linejoin="round"/>
<path d="M112.5 14C114.985 14 117 11.9853 117 9.5C117 7.01472 114.985 5 112.5 5C110.015 5 108 7.01472 108 9.5C108 11.9853 110.015 14 112.5 14Z" stroke="black" stroke-width="1.5" stroke-linecap="round" stroke-linejoin="round"/>
</svg>
