<svg width="371" height="56" viewBox="0 0 371 56" fill="none" xmlns="http://www.w3.org/2000/svg">
<rect x="0.5" y="0.5" width="370" height="55" rx="3.5" stroke="black" stroke-opacity="0.4"/>
<g clip-path="url(#clip0_155_1595)">
<path d="M109.766 28.2764C109.766 27.4607 109.7 26.6406 109.559 25.8381H98.24V30.4591H104.722C104.453 31.9494 103.589 33.2678 102.323 34.1056V37.1039H106.19C108.461 35.0139 109.766 31.9274 109.766 28.2764Z" fill="#4285F4"/>
<path d="M98.2401 40.0008C101.477 40.0008 104.206 38.9382 106.195 37.1039L102.328 34.1055C101.252 34.8375 99.8627 35.252 98.2445 35.252C95.1139 35.252 92.4595 33.1399 91.507 30.3003H87.5166V33.3912C89.5537 37.4434 93.7029 40.0008 98.2401 40.0008Z" fill="#34A853"/>
<path d="M91.5025 30.3003C90.9999 28.8099 90.9999 27.1961 91.5025 25.7057V22.6148H87.5165C85.8145 26.0056 85.8145 30.0004 87.5165 33.3912L91.5025 30.3003Z" fill="#FBBC04"/>
<path d="M98.2401 20.7497C99.9509 20.7232 101.604 21.367 102.843 22.5487L106.269 19.1226C104.1 17.0855 101.221 15.9655 98.2401 16.0008C93.7029 16.0008 89.5537 18.5582 87.5166 22.6148L91.5026 25.7058C92.4506 22.8617 95.1095 20.7497 98.2401 20.7497Z" fill="#EA4335"/>
</g>
<path d="M130.768 34.112C130.032 34.112 129.371 33.984 128.784 33.728C128.208 33.4613 127.755 33.0987 127.424 32.64C127.093 32.1707 126.923 31.632 126.912 31.024H128.464C128.517 31.5467 128.731 31.9893 129.104 32.352C129.488 32.704 130.043 32.88 130.768 32.88C131.461 32.88 132.005 32.7093 132.4 32.368C132.805 32.016 133.008 31.568 133.008 31.024C133.008 30.5973 132.891 30.2507 132.656 29.984C132.421 29.7173 132.128 29.5147 131.776 29.376C131.424 29.2373 130.949 29.088 130.352 28.928C129.616 28.736 129.024 28.544 128.576 28.352C128.139 28.16 127.76 27.8613 127.44 27.456C127.131 27.04 126.976 26.4853 126.976 25.792C126.976 25.184 127.131 24.6453 127.44 24.176C127.749 23.7067 128.181 23.344 128.736 23.088C129.301 22.832 129.947 22.704 130.672 22.704C131.717 22.704 132.571 22.9653 133.232 23.488C133.904 24.0107 134.283 24.704 134.368 25.568H132.768C132.715 25.1413 132.491 24.768 132.096 24.448C131.701 24.1173 131.179 23.952 130.528 23.952C129.92 23.952 129.424 24.112 129.04 24.432C128.656 24.7413 128.464 25.1787 128.464 25.744C128.464 26.1493 128.576 26.48 128.8 26.736C129.035 26.992 129.317 27.1893 129.648 27.328C129.989 27.456 130.464 27.6053 131.072 27.776C131.808 27.9787 132.4 28.1813 132.848 28.384C133.296 28.576 133.68 28.88 134 29.296C134.32 29.7013 134.48 30.256 134.48 30.96C134.48 31.504 134.336 32.016 134.048 32.496C133.76 32.976 133.333 33.3653 132.768 33.664C132.203 33.9627 131.536 34.112 130.768 34.112ZM137.375 23.808C137.097 23.808 136.863 23.712 136.671 23.52C136.479 23.328 136.383 23.0933 136.383 22.816C136.383 22.5387 136.479 22.304 136.671 22.112C136.863 21.92 137.097 21.824 137.375 21.824C137.641 21.824 137.865 21.92 138.047 22.112C138.239 22.304 138.335 22.5387 138.335 22.816C138.335 23.0933 138.239 23.328 138.047 23.52C137.865 23.712 137.641 23.808 137.375 23.808ZM138.079 25.232V34H136.623V25.232H138.079ZM144.176 25.088C144.933 25.088 145.595 25.2533 146.16 25.584C146.736 25.9147 147.163 26.3307 147.44 26.832V25.232H148.912V34.192C148.912 34.992 148.741 35.7013 148.4 36.32C148.059 36.9493 147.568 37.44 146.928 37.792C146.299 38.144 145.563 38.32 144.72 38.32C143.568 38.32 142.608 38.048 141.84 37.504C141.072 36.96 140.619 36.2187 140.48 35.28H141.92C142.08 35.8133 142.411 36.24 142.912 36.56C143.413 36.8907 144.016 37.056 144.72 37.056C145.52 37.056 146.171 36.8053 146.672 36.304C147.184 35.8027 147.44 35.0987 147.44 34.192V32.352C147.152 32.864 146.725 33.2907 146.16 33.632C145.595 33.9733 144.933 34.144 144.176 34.144C143.397 34.144 142.688 33.952 142.048 33.568C141.419 33.184 140.923 32.6453 140.56 31.952C140.197 31.2587 140.016 30.4693 140.016 29.584C140.016 28.688 140.197 27.904 140.56 27.232C140.923 26.5493 141.419 26.0213 142.048 25.648C142.688 25.2747 143.397 25.088 144.176 25.088ZM147.44 29.6C147.44 28.9387 147.307 28.3627 147.04 27.872C146.773 27.3813 146.411 27.008 145.952 26.752C145.504 26.4853 145.008 26.352 144.464 26.352C143.92 26.352 143.424 26.48 142.976 26.736C142.528 26.992 142.171 27.3653 141.904 27.856C141.637 28.3467 141.504 28.9227 141.504 29.584C141.504 30.256 141.637 30.8427 141.904 31.344C142.171 31.8347 142.528 32.2133 142.976 32.48C143.424 32.736 143.92 32.864 144.464 32.864C145.008 32.864 145.504 32.736 145.952 32.48C146.411 32.2133 146.773 31.8347 147.04 31.344C147.307 30.8427 147.44 30.2613 147.44 29.6ZM155.645 25.072C156.711 25.072 157.575 25.3973 158.237 26.048C158.898 26.688 159.229 27.616 159.229 28.832V34H157.789V29.04C157.789 28.1653 157.57 27.4987 157.133 27.04C156.695 26.5707 156.098 26.336 155.341 26.336C154.573 26.336 153.959 26.576 153.501 27.056C153.053 27.536 152.829 28.2347 152.829 29.152V34H151.373V25.232H152.829V26.48C153.117 26.032 153.506 25.6853 153.997 25.44C154.498 25.1947 155.047 25.072 155.645 25.072ZM173.649 25.232V34H172.193V32.704C171.915 33.152 171.526 33.504 171.025 33.76C170.534 34.0053 169.99 34.128 169.393 34.128C168.71 34.128 168.097 33.9893 167.553 33.712C167.009 33.424 166.577 32.9973 166.257 32.432C165.947 31.8667 165.793 31.1787 165.793 30.368V25.232H167.233V30.176C167.233 31.04 167.451 31.7067 167.889 32.176C168.326 32.6347 168.923 32.864 169.681 32.864C170.459 32.864 171.073 32.624 171.521 32.144C171.969 31.664 172.193 30.9653 172.193 30.048V25.232H173.649ZM177.563 26.848C177.851 26.3467 178.278 25.9307 178.843 25.6C179.419 25.2587 180.086 25.088 180.843 25.088C181.622 25.088 182.326 25.2747 182.955 25.648C183.595 26.0213 184.096 26.5493 184.459 27.232C184.822 27.904 185.003 28.688 185.003 29.584C185.003 30.4693 184.822 31.2587 184.459 31.952C184.096 32.6453 183.595 33.184 182.955 33.568C182.326 33.952 181.622 34.144 180.843 34.144C180.096 34.144 179.435 33.9787 178.859 33.648C178.294 33.3067 177.862 32.8853 177.563 32.384V38.16H176.107V25.232H177.563V26.848ZM183.515 29.584C183.515 28.9227 183.382 28.3467 183.115 27.856C182.848 27.3653 182.486 26.992 182.027 26.736C181.579 26.48 181.083 26.352 180.539 26.352C180.006 26.352 179.51 26.4853 179.051 26.752C178.603 27.008 178.24 27.3867 177.963 27.888C177.696 28.3787 177.563 28.9493 177.563 29.6C177.563 30.2613 177.696 30.8427 177.963 31.344C178.24 31.8347 178.603 32.2133 179.051 32.48C179.51 32.736 180.006 32.864 180.539 32.864C181.083 32.864 181.579 32.736 182.027 32.48C182.486 32.2133 182.848 31.8347 183.115 31.344C183.382 30.8427 183.515 30.256 183.515 29.584ZM202.865 25.232L200.129 34H198.625L196.513 27.04L194.401 34H192.897L190.145 25.232H191.633L193.649 32.592L195.825 25.232H197.313L199.441 32.608L201.425 25.232H202.865ZM205.062 23.808C204.785 23.808 204.55 23.712 204.358 23.52C204.166 23.328 204.07 23.0933 204.07 22.816C204.07 22.5387 204.166 22.304 204.358 22.112C204.55 21.92 204.785 21.824 205.062 21.824C205.329 21.824 205.553 21.92 205.734 22.112C205.926 22.304 206.022 22.5387 206.022 22.816C206.022 23.0933 205.926 23.328 205.734 23.52C205.553 23.712 205.329 23.808 205.062 23.808ZM205.766 25.232V34H204.31V25.232H205.766ZM210.024 26.432V31.6C210.024 32.0267 210.114 32.3307 210.296 32.512C210.477 32.6827 210.792 32.768 211.24 32.768H212.312V34H211C210.189 34 209.581 33.8133 209.176 33.44C208.77 33.0667 208.568 32.4533 208.568 31.6V26.432H207.432V25.232H208.568V23.024H210.024V25.232H212.312V26.432H210.024ZM218.428 25.072C219.089 25.072 219.686 25.216 220.22 25.504C220.753 25.7813 221.169 26.2027 221.468 26.768C221.777 27.3333 221.932 28.0213 221.932 28.832V34H220.492V29.04C220.492 28.1653 220.273 27.4987 219.836 27.04C219.398 26.5707 218.801 26.336 218.044 26.336C217.276 26.336 216.662 26.576 216.204 27.056C215.756 27.536 215.532 28.2347 215.532 29.152V34H214.076V22.16H215.532V26.48C215.82 26.032 216.214 25.6853 216.716 25.44C217.228 25.1947 217.798 25.072 218.428 25.072ZM237.024 26.08C236.714 25.4293 236.266 24.928 235.68 24.576C235.093 24.2133 234.41 24.032 233.632 24.032C232.853 24.032 232.149 24.2133 231.52 24.576C230.901 24.928 230.41 25.44 230.048 26.112C229.696 26.7733 229.52 27.5413 229.52 28.416C229.52 29.2907 229.696 30.0587 230.048 30.72C230.41 31.3813 230.901 31.8933 231.52 32.256C232.149 32.608 232.853 32.784 233.632 32.784C234.72 32.784 235.616 32.4587 236.32 31.808C237.024 31.1573 237.434 30.2773 237.552 29.168H233.104V27.984H239.104V29.104C239.018 30.0213 238.73 30.864 238.24 31.632C237.749 32.3893 237.104 32.992 236.304 33.44C235.504 33.8773 234.613 34.096 233.632 34.096C232.597 34.096 231.653 33.856 230.8 33.376C229.946 32.8853 229.269 32.208 228.768 31.344C228.277 30.48 228.032 29.504 228.032 28.416C228.032 27.328 228.277 26.352 228.768 25.488C229.269 24.6133 229.946 23.936 230.8 23.456C231.653 22.9653 232.597 22.72 233.632 22.72C234.816 22.72 235.861 23.0133 236.768 23.6C237.685 24.1867 238.352 25.0133 238.768 26.08H237.024ZM244.853 34.144C244.032 34.144 243.285 33.9573 242.613 33.584C241.952 33.2107 241.429 32.6827 241.045 32C240.672 31.3067 240.485 30.5067 240.485 29.6C240.485 28.704 240.677 27.9147 241.061 27.232C241.456 26.5387 241.989 26.0107 242.661 25.648C243.333 25.2747 244.085 25.088 244.917 25.088C245.749 25.088 246.501 25.2747 247.173 25.648C247.845 26.0107 248.373 26.5333 248.757 27.216C249.152 27.8987 249.349 28.6933 249.349 29.6C249.349 30.5067 249.146 31.3067 248.741 32C248.346 32.6827 247.808 33.2107 247.125 33.584C246.442 33.9573 245.685 34.144 244.853 34.144ZM244.853 32.864C245.376 32.864 245.866 32.7413 246.325 32.496C246.784 32.2507 247.152 31.8827 247.429 31.392C247.717 30.9013 247.861 30.304 247.861 29.6C247.861 28.896 247.722 28.2987 247.445 27.808C247.168 27.3173 246.805 26.9547 246.357 26.72C245.909 26.4747 245.424 26.352 244.901 26.352C244.368 26.352 243.877 26.4747 243.429 26.72C242.992 26.9547 242.64 27.3173 242.373 27.808C242.106 28.2987 241.973 28.896 241.973 29.6C241.973 30.3147 242.101 30.9173 242.357 31.408C242.624 31.8987 242.976 32.2667 243.413 32.512C243.85 32.7467 244.33 32.864 244.853 32.864ZM255.087 34.144C254.266 34.144 253.519 33.9573 252.847 33.584C252.186 33.2107 251.663 32.6827 251.279 32C250.906 31.3067 250.719 30.5067 250.719 29.6C250.719 28.704 250.911 27.9147 251.295 27.232C251.69 26.5387 252.223 26.0107 252.895 25.648C253.567 25.2747 254.319 25.088 255.151 25.088C255.983 25.088 256.735 25.2747 257.407 25.648C258.079 26.0107 258.607 26.5333 258.991 27.216C259.386 27.8987 259.583 28.6933 259.583 29.6C259.583 30.5067 259.381 31.3067 258.975 32C258.581 32.6827 258.042 33.2107 257.359 33.584C256.677 33.9573 255.919 34.144 255.087 34.144ZM255.087 32.864C255.61 32.864 256.101 32.7413 256.559 32.496C257.018 32.2507 257.386 31.8827 257.663 31.392C257.951 30.9013 258.095 30.304 258.095 29.6C258.095 28.896 257.957 28.2987 257.679 27.808C257.402 27.3173 257.039 26.9547 256.591 26.72C256.143 26.4747 255.658 26.352 255.135 26.352C254.602 26.352 254.111 26.4747 253.663 26.72C253.226 26.9547 252.874 27.3173 252.607 27.808C252.341 28.2987 252.207 28.896 252.207 29.6C252.207 30.3147 252.335 30.9173 252.591 31.408C252.858 31.8987 253.21 32.2667 253.647 32.512C254.085 32.7467 254.565 32.864 255.087 32.864ZM265.114 25.088C265.871 25.088 266.532 25.2533 267.098 25.584C267.674 25.9147 268.1 26.3307 268.378 26.832V25.232H269.85V34.192C269.85 34.992 269.679 35.7013 269.338 36.32C268.996 36.9493 268.506 37.44 267.866 37.792C267.236 38.144 266.5 38.32 265.658 38.32C264.506 38.32 263.546 38.048 262.778 37.504C262.01 36.96 261.556 36.2187 261.418 35.28H262.858C263.018 35.8133 263.348 36.24 263.85 36.56C264.351 36.8907 264.954 37.056 265.658 37.056C266.458 37.056 267.108 36.8053 267.61 36.304C268.122 35.8027 268.378 35.0987 268.378 34.192V32.352C268.09 32.864 267.663 33.2907 267.098 33.632C266.532 33.9733 265.871 34.144 265.114 34.144C264.335 34.144 263.626 33.952 262.986 33.568C262.356 33.184 261.86 32.6453 261.498 31.952C261.135 31.2587 260.954 30.4693 260.954 29.584C260.954 28.688 261.135 27.904 261.498 27.232C261.86 26.5493 262.356 26.0213 262.986 25.648C263.626 25.2747 264.335 25.088 265.114 25.088ZM268.378 29.6C268.378 28.9387 268.244 28.3627 267.978 27.872C267.711 27.3813 267.348 27.008 266.89 26.752C266.442 26.4853 265.946 26.352 265.402 26.352C264.858 26.352 264.362 26.48 263.914 26.736C263.466 26.992 263.108 27.3653 262.842 27.856C262.575 28.3467 262.442 28.9227 262.442 29.584C262.442 30.256 262.575 30.8427 262.842 31.344C263.108 31.8347 263.466 32.2133 263.914 32.48C264.362 32.736 264.858 32.864 265.402 32.864C265.946 32.864 266.442 32.736 266.89 32.48C267.348 32.2133 267.711 31.8347 267.978 31.344C268.244 30.8427 268.378 30.2613 268.378 29.6ZM273.766 22.16V34H272.31V22.16H273.766ZM284.248 29.28C284.248 29.5573 284.232 29.8507 284.2 30.16H277.192C277.245 31.024 277.538 31.7013 278.072 32.192C278.616 32.672 279.272 32.912 280.04 32.912C280.669 32.912 281.192 32.768 281.608 32.48C282.034 32.1813 282.333 31.7867 282.504 31.296H284.072C283.837 32.1387 283.368 32.8267 282.664 33.36C281.96 33.8827 281.085 34.144 280.04 34.144C279.208 34.144 278.461 33.9573 277.8 33.584C277.149 33.2107 276.637 32.6827 276.264 32C275.89 31.3067 275.704 30.5067 275.704 29.6C275.704 28.6933 275.885 27.8987 276.248 27.216C276.61 26.5333 277.117 26.0107 277.768 25.648C278.429 25.2747 279.186 25.088 280.04 25.088C280.872 25.088 281.608 25.2693 282.248 25.632C282.888 25.9947 283.378 26.496 283.72 27.136C284.072 27.7653 284.248 28.48 284.248 29.28ZM282.744 28.976C282.744 28.4213 282.621 27.9467 282.376 27.552C282.13 27.1467 281.794 26.8427 281.368 26.64C280.952 26.4267 280.488 26.32 279.976 26.32C279.24 26.32 278.61 26.5547 278.088 27.024C277.576 27.4933 277.282 28.144 277.208 28.976H282.744Z" fill="black"/>
<defs>
<clipPath id="clip0_155_1595">
<rect width="24" height="24" fill="white" transform="translate(86 16)"/>
</clipPath>
</defs>
</svg>
